# xmcd CD database file
#
# Track frame offsets:
#	150
#	17752
#	37032
#	54635
#
# Disc length: 981 seconds
#
# Revision: 6
# Processed by: cddbd v1.5.2PL0 Copyright (c) Steve Scherf et al.
# Submitted via: CDex 1.70beta2
#
DISCID=2e03d304
DTITLE=戸松遥 - Girls, Be Ambitious.
DYEAR=2010
DGENRE=Seiyu
TTITLE0=Girls, Be Ambitious.
TTITLE1=未来時計
TTITLE2=Girls, Be Ambitious. (Instrumental)
TTITLE3=未来時計 (Instrumental)
EXTD=YEAR: 2010
EXTT0=
EXTT1=
EXTT2=
EXTT3=
PLAYORDER=
